<svg xmlns="http://www.w3.org/2000/svg" width="480" height="166" viewBox="0 0 480 166" role="img" aria-label="KNN Recommendations. User-based recommendations from shared ratings. Python · Flask · PostgreSQL. Open repository."><title>KNN Recommendations. User-based recommendations from shared ratings. Python · Flask · PostgreSQL. Open repository.</title><rect x=".5" y=".5" width="479" height="165" rx="12" fill="#111820" stroke="#2c3c46"/><rect x="16" y="52" width="44" height="44" rx="9" fill="#18232c"/><g transform="translate(20 56) scale(.75)"><g fill="none" stroke="#8dd9cc" stroke-width="1.8" stroke-linecap="round" stroke-linejoin="round"><path d="m24 24-15-12m15 12 15-12m-15 12-15 12m15-12 15 12"/><circle cx="24" cy="24" r="6"/><circle cx="9" cy="12" r="3"/><circle cx="39" cy="12" r="3"/><circle cx="9" cy="36" r="3"/><circle cx="39" cy="36" r="3"/></g></g><text x="74" y="27" font-family="ui-monospace, SFMono-Regular, Consolas, monospace" font-size="9.5" font-weight="400" text-anchor="start" fill="#a9b8c2">02 / RECOMMENDATION SYSTEM</text><text x="74" y="62" font-family="system-ui, -apple-system, Segoe UI, Arial, sans-serif" font-size="22" font-weight="600" text-anchor="start" fill="#edf3f5">KNN Recommendations</text><text x="74" y="88" font-family="system-ui, -apple-system, Segoe UI, Arial, sans-serif" font-size="15" font-weight="400" text-anchor="start" fill="#a9b8c2">User-based recommendations</text><text x="74" y="108" font-family="system-ui, -apple-system, Segoe UI, Arial, sans-serif" font-size="15" font-weight="400" text-anchor="start" fill="#a9b8c2">from shared ratings.</text><text x="74" y="145" font-family="ui-monospace, SFMono-Regular, Consolas, monospace" font-size="12" font-weight="400" text-anchor="start" fill="#a9b8c2">Python · Flask · PostgreSQL</text><g transform="translate(442 69)" fill="none" stroke="#8dd9cc" stroke-width="1.8" stroke-linecap="round" stroke-linejoin="round"><path d="M0 14 14 0M3 0h11v11"/></g></svg>
