<svg xmlns="http://www.w3.org/2000/svg" width="480" height="166" viewBox="0 0 480 166" role="img" aria-label="ULIDE Party. Lisbon nightlife discovery with geospatial APIs. Node.js · Express · PostGIS · Team project. Open repository."><title>ULIDE Party. Lisbon nightlife discovery with geospatial APIs. Node.js · Express · PostGIS · Team project. Open repository.</title><rect x=".5" y=".5" width="479" height="165" rx="12" fill="#111820" stroke="#2c3c46"/><rect x="16" y="52" width="44" height="44" rx="9" fill="#18232c"/><g transform="translate(20 56) scale(.75)"><g fill="none" stroke="#8dd9cc" stroke-width="1.8" stroke-linecap="round" stroke-linejoin="round"><path d="M36 20c0 10-12 21-12 21S12 30 12 20a12 12 0 0 1 24 0Z"/><circle cx="24" cy="20" r="4"/><path d="M5 41h11m16 0h11"/></g></g><text x="74" y="27" font-family="ui-monospace, SFMono-Regular, Consolas, monospace" font-size="9.5" font-weight="400" text-anchor="start" fill="#a9b8c2">03 / BACKEND / GEOSPATIAL</text><text x="462" y="27" font-family="ui-monospace, SFMono-Regular, Consolas, monospace" font-size="9" font-weight="400" text-anchor="end" fill="#a9b8c2">TEAM PROJECT</text><text x="74" y="62" font-family="system-ui, -apple-system, Segoe UI, Arial, sans-serif" font-size="22" font-weight="600" text-anchor="start" fill="#edf3f5">ULIDE Party</text><text x="74" y="88" font-family="system-ui, -apple-system, Segoe UI, Arial, sans-serif" font-size="15" font-weight="400" text-anchor="start" fill="#a9b8c2">Lisbon nightlife discovery</text><text x="74" y="108" font-family="system-ui, -apple-system, Segoe UI, Arial, sans-serif" font-size="15" font-weight="400" text-anchor="start" fill="#a9b8c2">with geospatial APIs.</text><text x="74" y="145" font-family="ui-monospace, SFMono-Regular, Consolas, monospace" font-size="12" font-weight="400" text-anchor="start" fill="#a9b8c2">Node.js · Express · PostGIS</text><g transform="translate(442 69)" fill="none" stroke="#8dd9cc" stroke-width="1.8" stroke-linecap="round" stroke-linejoin="round"><path d="M0 14 14 0M3 0h11v11"/></g></svg>
